<mxfile host="Electron" agent="Mozilla/5.0 (Windows NT 10.0; Win64; x64) AppleWebKit/537.36 (KHTML, like Gecko) draw.io/28.1.2 Chrome/138.0.7204.243 Electron/37.4.0 Safari/537.36" version="28.1.2">
  <diagram name="Seite-1" id="wSf0OqnuUraJdsiS_Y4v">
    <mxGraphModel dx="1584" dy="934" grid="1" gridSize="10" guides="1" tooltips="1" connect="1" arrows="1" fold="1" page="1" pageScale="1" pageWidth="827" pageHeight="1169" math="0" shadow="0">
      <root>
        <mxCell id="0" />
        <mxCell id="1" parent="0" />
        <mxCell id="q7a3Z3C_yqWMrhTd1zzZ-10" value="" style="edgeStyle=orthogonalEdgeStyle;rounded=0;orthogonalLoop=1;jettySize=auto;html=1;" edge="1" parent="1" source="q7a3Z3C_yqWMrhTd1zzZ-1" target="q7a3Z3C_yqWMrhTd1zzZ-4">
          <mxGeometry relative="1" as="geometry" />
        </mxCell>
        <mxCell id="q7a3Z3C_yqWMrhTd1zzZ-1" value="start" style="ellipse;whiteSpace=wrap;html=1;" vertex="1" parent="1">
          <mxGeometry x="330" y="10" width="120" height="80" as="geometry" />
        </mxCell>
        <mxCell id="q7a3Z3C_yqWMrhTd1zzZ-9" value="" style="edgeStyle=orthogonalEdgeStyle;rounded=0;orthogonalLoop=1;jettySize=auto;html=1;" edge="1" parent="1" source="q7a3Z3C_yqWMrhTd1zzZ-11">
          <mxGeometry relative="1" as="geometry">
            <mxPoint x="390" y="390" as="targetPoint" />
          </mxGeometry>
        </mxCell>
        <mxCell id="q7a3Z3C_yqWMrhTd1zzZ-4" value="define variablen:&amp;nbsp;&lt;div&gt;&lt;font style=&quot;color: rgb(51, 153, 255);&quot;&gt;&lt;b&gt;name&lt;/b&gt;&lt;/font&gt;: &quot;Sefa&quot;&lt;/div&gt;&lt;div&gt;&lt;font style=&quot;color: rgb(51, 153, 255);&quot;&gt;&lt;b&gt;country&lt;/b&gt;&lt;/font&gt;: &quot;Turkey&quot;&lt;/div&gt;&lt;div&gt;&lt;font style=&quot;color: rgb(51, 153, 255);&quot;&gt;&lt;b&gt;age&lt;/b&gt;&lt;/font&gt;: &quot;33&quot;&lt;/div&gt;&lt;div&gt;&lt;font style=&quot;color: rgb(51, 153, 255);&quot;&gt;&lt;b&gt;result&lt;/b&gt;&lt;/font&gt;: NULL&lt;/div&gt;" style="shape=process;whiteSpace=wrap;html=1;backgroundOutline=1;" vertex="1" parent="1">
          <mxGeometry x="300" y="120" width="180" height="80" as="geometry" />
        </mxCell>
        <mxCell id="q7a3Z3C_yqWMrhTd1zzZ-5" value="Process: means when&lt;div&gt;your app shall do&lt;/div&gt;&lt;div&gt;something itself&lt;/div&gt;" style="shape=document;whiteSpace=wrap;html=1;boundedLbl=1;" vertex="1" parent="1">
          <mxGeometry x="10" y="240" width="150" height="110" as="geometry" />
        </mxCell>
        <mxCell id="q7a3Z3C_yqWMrhTd1zzZ-6" value="" style="shape=flexArrow;endArrow=classic;html=1;rounded=0;" edge="1" parent="1">
          <mxGeometry width="50" height="50" relative="1" as="geometry">
            <mxPoint x="170" y="280" as="sourcePoint" />
            <mxPoint x="260" y="280" as="targetPoint" />
            <Array as="points">
              <mxPoint x="240" y="280" />
            </Array>
          </mxGeometry>
        </mxCell>
        <mxCell id="q7a3Z3C_yqWMrhTd1zzZ-14" value="" style="edgeStyle=orthogonalEdgeStyle;rounded=0;orthogonalLoop=1;jettySize=auto;html=1;" edge="1" parent="1" source="q7a3Z3C_yqWMrhTd1zzZ-11" target="q7a3Z3C_yqWMrhTd1zzZ-13">
          <mxGeometry relative="1" as="geometry" />
        </mxCell>
        <mxCell id="q7a3Z3C_yqWMrhTd1zzZ-16" value="" style="edgeStyle=orthogonalEdgeStyle;rounded=0;orthogonalLoop=1;jettySize=auto;html=1;" edge="1" parent="1" source="q7a3Z3C_yqWMrhTd1zzZ-13" target="q7a3Z3C_yqWMrhTd1zzZ-15">
          <mxGeometry relative="1" as="geometry" />
        </mxCell>
        <mxCell id="q7a3Z3C_yqWMrhTd1zzZ-13" value="print:&amp;nbsp;&lt;span style=&quot;float: none; display: inline !important; color: rgb(0, 0, 0); background-color: rgb(236, 236, 236);&quot;&gt;result&lt;/span&gt;&lt;br&gt;&amp;nbsp;" style="rounded=1;whiteSpace=wrap;html=1;" vertex="1" parent="1">
          <mxGeometry x="290" y="390" width="200" height="50" as="geometry" />
        </mxCell>
        <mxCell id="q7a3Z3C_yqWMrhTd1zzZ-15" value="END" style="ellipse;whiteSpace=wrap;html=1;" vertex="1" parent="1">
          <mxGeometry x="330" y="480" width="120" height="80" as="geometry" />
        </mxCell>
        <mxCell id="q7a3Z3C_yqWMrhTd1zzZ-17" value="" style="edgeStyle=orthogonalEdgeStyle;rounded=0;orthogonalLoop=1;jettySize=auto;html=1;" edge="1" parent="1" source="q7a3Z3C_yqWMrhTd1zzZ-4" target="q7a3Z3C_yqWMrhTd1zzZ-11">
          <mxGeometry relative="1" as="geometry">
            <mxPoint x="390" y="250" as="sourcePoint" />
            <mxPoint x="390" y="390" as="targetPoint" />
          </mxGeometry>
        </mxCell>
        <mxCell id="q7a3Z3C_yqWMrhTd1zzZ-11" value="&lt;br&gt;&lt;span style=&quot;font-family: Helvetica; font-size: 12px; font-style: normal; font-variant-ligatures: normal; font-variant-caps: normal; letter-spacing: normal; orphans: 2; text-align: center; text-indent: 0px; text-transform: none; widows: 2; word-spacing: 0px; -webkit-text-stroke-width: 0px; white-space: normal; background-color: rgb(236, 236, 236); text-decoration-thickness: initial; text-decoration-style: initial; text-decoration-color: initial; float: none; display: inline !important;&quot;&gt;&lt;b style=&quot;&quot;&gt;&lt;font style=&quot;color: rgb(51, 153, 255);&quot;&gt;result&lt;/font&gt;&lt;/b&gt;&lt;/span&gt;&lt;span style=&quot;color: rgb(0, 0, 0); font-family: Helvetica; font-size: 12px; font-style: normal; font-variant-ligatures: normal; font-variant-caps: normal; font-weight: 400; letter-spacing: normal; orphans: 2; text-align: center; text-indent: 0px; text-transform: none; widows: 2; word-spacing: 0px; -webkit-text-stroke-width: 0px; white-space: normal; background-color: rgb(236, 236, 236); text-decoration-thickness: initial; text-decoration-style: initial; text-decoration-color: initial; display: inline !important; float: none;&quot;&gt; = Hello my name is &lt;/span&gt;&lt;span style=&quot;font-family: Helvetica; font-size: 12px; font-style: normal; font-variant-ligatures: normal; font-variant-caps: normal; letter-spacing: normal; orphans: 2; text-align: center; text-indent: 0px; text-transform: none; widows: 2; word-spacing: 0px; -webkit-text-stroke-width: 0px; white-space: normal; background-color: rgb(236, 236, 236); text-decoration-thickness: initial; text-decoration-style: initial; text-decoration-color: initial; float: none; display: inline !important;&quot;&gt;&lt;b style=&quot;&quot;&gt;&lt;font style=&quot;color: rgb(51, 153, 255);&quot;&gt;&quot;name&quot;&lt;/font&gt;&lt;/b&gt;&lt;/span&gt;&lt;span style=&quot;color: rgb(0, 0, 0); font-family: Helvetica; font-size: 12px; font-style: normal; font-variant-ligatures: normal; font-variant-caps: normal; font-weight: 400; letter-spacing: normal; orphans: 2; text-align: center; text-indent: 0px; text-transform: none; widows: 2; word-spacing: 0px; -webkit-text-stroke-width: 0px; white-space: normal; background-color: rgb(236, 236, 236); text-decoration-thickness: initial; text-decoration-style: initial; text-decoration-color: initial; display: inline !important; float: none;&quot;&gt; and i am &lt;/span&gt;&lt;span style=&quot;font-family: Helvetica; font-size: 12px; font-style: normal; font-variant-ligatures: normal; font-variant-caps: normal; letter-spacing: normal; orphans: 2; text-align: center; text-indent: 0px; text-transform: none; widows: 2; word-spacing: 0px; -webkit-text-stroke-width: 0px; white-space: normal; background-color: rgb(236, 236, 236); text-decoration-thickness: initial; text-decoration-style: initial; text-decoration-color: initial; float: none; display: inline !important;&quot;&gt;&lt;b style=&quot;&quot;&gt;&lt;font style=&quot;color: rgb(51, 153, 255);&quot;&gt;&quot;age&quot;&lt;/font&gt;&lt;/b&gt;&lt;/span&gt;&lt;span style=&quot;color: rgb(0, 0, 0); font-family: Helvetica; font-size: 12px; font-style: normal; font-variant-ligatures: normal; font-variant-caps: normal; font-weight: 400; letter-spacing: normal; orphans: 2; text-align: center; text-indent: 0px; text-transform: none; widows: 2; word-spacing: 0px; -webkit-text-stroke-width: 0px; white-space: normal; background-color: rgb(236, 236, 236); text-decoration-thickness: initial; text-decoration-style: initial; text-decoration-color: initial; display: inline !important; float: none;&quot;&gt; years old and i come from &lt;/span&gt;&lt;span style=&quot;font-family: Helvetica; font-size: 12px; font-style: normal; font-variant-ligatures: normal; font-variant-caps: normal; letter-spacing: normal; orphans: 2; text-align: center; text-indent: 0px; text-transform: none; widows: 2; word-spacing: 0px; -webkit-text-stroke-width: 0px; white-space: normal; background-color: rgb(236, 236, 236); text-decoration-thickness: initial; text-decoration-style: initial; text-decoration-color: initial; float: none; display: inline !important;&quot;&gt;&lt;b style=&quot;&quot;&gt;&lt;font style=&quot;color: rgb(51, 153, 255);&quot;&gt;&quot;country&quot;&lt;/font&gt;&lt;/b&gt;&lt;/span&gt;&lt;span style=&quot;color: rgb(0, 0, 0); font-family: Helvetica; font-size: 12px; font-style: normal; font-variant-ligatures: normal; font-variant-caps: normal; font-weight: 400; letter-spacing: normal; orphans: 2; text-align: center; text-indent: 0px; text-transform: none; widows: 2; word-spacing: 0px; -webkit-text-stroke-width: 0px; white-space: normal; background-color: rgb(236, 236, 236); text-decoration-thickness: initial; text-decoration-style: initial; text-decoration-color: initial; display: inline !important; float: none;&quot;&gt;&amp;nbsp;&lt;/span&gt;&lt;div&gt;&lt;br&gt;&lt;/div&gt;" style="shape=process;whiteSpace=wrap;html=1;backgroundOutline=1;" vertex="1" parent="1">
          <mxGeometry x="275" y="240" width="230" height="110" as="geometry" />
        </mxCell>
        <mxCell id="q7a3Z3C_yqWMrhTd1zzZ-19" value="" style="whiteSpace=wrap;html=1;aspect=fixed;" vertex="1" parent="1">
          <mxGeometry x="60" y="570" width="570" height="570" as="geometry" />
        </mxCell>
        <mxCell id="q7a3Z3C_yqWMrhTd1zzZ-20" value="Text Generator Process" style="text;html=1;align=center;verticalAlign=middle;whiteSpace=wrap;rounded=0;" vertex="1" parent="1">
          <mxGeometry x="60" y="585" width="160" height="30" as="geometry" />
        </mxCell>
        <mxCell id="q7a3Z3C_yqWMrhTd1zzZ-24" value="" style="edgeStyle=orthogonalEdgeStyle;rounded=0;orthogonalLoop=1;jettySize=auto;html=1;" edge="1" parent="1" source="q7a3Z3C_yqWMrhTd1zzZ-21" target="q7a3Z3C_yqWMrhTd1zzZ-22">
          <mxGeometry relative="1" as="geometry" />
        </mxCell>
        <mxCell id="q7a3Z3C_yqWMrhTd1zzZ-21" value="start" style="ellipse;whiteSpace=wrap;html=1;" vertex="1" parent="1">
          <mxGeometry x="260" y="590" width="80" height="50" as="geometry" />
        </mxCell>
        <mxCell id="q7a3Z3C_yqWMrhTd1zzZ-25" value="" style="edgeStyle=orthogonalEdgeStyle;rounded=0;orthogonalLoop=1;jettySize=auto;html=1;" edge="1" parent="1" source="q7a3Z3C_yqWMrhTd1zzZ-22" target="q7a3Z3C_yqWMrhTd1zzZ-23">
          <mxGeometry relative="1" as="geometry" />
        </mxCell>
        <mxCell id="q7a3Z3C_yqWMrhTd1zzZ-22" value="input : name , country , age" style="shape=parallelogram;perimeter=parallelogramPerimeter;whiteSpace=wrap;html=1;fixedSize=1;" vertex="1" parent="1">
          <mxGeometry x="195" y="670" width="210" height="60" as="geometry" />
        </mxCell>
        <mxCell id="q7a3Z3C_yqWMrhTd1zzZ-27" value="" style="edgeStyle=orthogonalEdgeStyle;rounded=0;orthogonalLoop=1;jettySize=auto;html=1;" edge="1" parent="1" source="q7a3Z3C_yqWMrhTd1zzZ-23" target="q7a3Z3C_yqWMrhTd1zzZ-26">
          <mxGeometry relative="1" as="geometry">
            <Array as="points">
              <mxPoint x="400" y="790" />
              <mxPoint x="400" y="790" />
            </Array>
          </mxGeometry>
        </mxCell>
        <mxCell id="q7a3Z3C_yqWMrhTd1zzZ-28" value="No" style="edgeLabel;html=1;align=center;verticalAlign=middle;resizable=0;points=[];" vertex="1" connectable="0" parent="q7a3Z3C_yqWMrhTd1zzZ-27">
          <mxGeometry x="-0.025" relative="1" as="geometry">
            <mxPoint as="offset" />
          </mxGeometry>
        </mxCell>
        <mxCell id="q7a3Z3C_yqWMrhTd1zzZ-30" value="" style="edgeStyle=orthogonalEdgeStyle;rounded=0;orthogonalLoop=1;jettySize=auto;html=1;" edge="1" parent="1" source="q7a3Z3C_yqWMrhTd1zzZ-23" target="q7a3Z3C_yqWMrhTd1zzZ-29">
          <mxGeometry relative="1" as="geometry" />
        </mxCell>
        <mxCell id="q7a3Z3C_yqWMrhTd1zzZ-23" value="all input exists" style="rhombus;whiteSpace=wrap;html=1;" vertex="1" parent="1">
          <mxGeometry x="250" y="750" width="100" height="80" as="geometry" />
        </mxCell>
        <mxCell id="q7a3Z3C_yqWMrhTd1zzZ-42" style="edgeStyle=orthogonalEdgeStyle;rounded=0;orthogonalLoop=1;jettySize=auto;html=1;entryX=1;entryY=0.5;entryDx=0;entryDy=0;" edge="1" parent="1" source="q7a3Z3C_yqWMrhTd1zzZ-26" target="q7a3Z3C_yqWMrhTd1zzZ-32">
          <mxGeometry relative="1" as="geometry">
            <Array as="points">
              <mxPoint x="480" y="1105" />
            </Array>
          </mxGeometry>
        </mxCell>
        <mxCell id="q7a3Z3C_yqWMrhTd1zzZ-26" value="Print: Error" style="rounded=0;whiteSpace=wrap;html=1;" vertex="1" parent="1">
          <mxGeometry x="420" y="750" width="120" height="60" as="geometry" />
        </mxCell>
        <mxCell id="q7a3Z3C_yqWMrhTd1zzZ-34" value="" style="edgeStyle=orthogonalEdgeStyle;rounded=0;orthogonalLoop=1;jettySize=auto;html=1;" edge="1" parent="1" source="q7a3Z3C_yqWMrhTd1zzZ-29" target="q7a3Z3C_yqWMrhTd1zzZ-31">
          <mxGeometry relative="1" as="geometry" />
        </mxCell>
        <mxCell id="q7a3Z3C_yqWMrhTd1zzZ-29" value="&lt;br&gt;&lt;span style=&quot;float: none; display: inline !important; background-color: rgb(236, 236, 236);&quot;&gt;&lt;b&gt;&lt;font style=&quot;color: rgb(51, 153, 255);&quot;&gt;result&lt;/font&gt;&lt;/b&gt;&lt;/span&gt;&lt;span style=&quot;float: none; display: inline !important; color: rgb(0, 0, 0); background-color: rgb(236, 236, 236);&quot;&gt;&amp;nbsp;= Hello my name is&amp;nbsp;&lt;/span&gt;&lt;span style=&quot;float: none; display: inline !important; background-color: rgb(236, 236, 236);&quot;&gt;&lt;b&gt;&lt;font style=&quot;color: rgb(51, 153, 255);&quot;&gt;&quot;name&quot;&lt;/font&gt;&lt;/b&gt;&lt;/span&gt;&lt;span style=&quot;float: none; display: inline !important; color: rgb(0, 0, 0); background-color: rgb(236, 236, 236);&quot;&gt;&amp;nbsp;and i am&amp;nbsp;&lt;/span&gt;&lt;span style=&quot;float: none; display: inline !important; background-color: rgb(236, 236, 236);&quot;&gt;&lt;b&gt;&lt;font style=&quot;color: rgb(51, 153, 255);&quot;&gt;&quot;age&quot;&lt;/font&gt;&lt;/b&gt;&lt;/span&gt;&lt;span style=&quot;float: none; display: inline !important; color: rgb(0, 0, 0); background-color: rgb(236, 236, 236);&quot;&gt;&amp;nbsp;years old and i come from&amp;nbsp;&lt;/span&gt;&lt;span style=&quot;float: none; display: inline !important; background-color: rgb(236, 236, 236);&quot;&gt;&lt;b&gt;&lt;font style=&quot;color: rgb(51, 153, 255);&quot;&gt;&quot;country&quot;&lt;/font&gt;&lt;/b&gt;&lt;/span&gt;&lt;span style=&quot;float: none; display: inline !important; color: rgb(0, 0, 0); background-color: rgb(236, 236, 236);&quot;&gt;&amp;nbsp;&lt;/span&gt;&lt;div&gt;&lt;br&gt;&lt;/div&gt;" style="rounded=0;whiteSpace=wrap;html=1;" vertex="1" parent="1">
          <mxGeometry x="180" y="870" width="240" height="70" as="geometry" />
        </mxCell>
        <mxCell id="q7a3Z3C_yqWMrhTd1zzZ-35" value="" style="edgeStyle=orthogonalEdgeStyle;rounded=0;orthogonalLoop=1;jettySize=auto;html=1;" edge="1" parent="1" source="q7a3Z3C_yqWMrhTd1zzZ-31" target="q7a3Z3C_yqWMrhTd1zzZ-32">
          <mxGeometry relative="1" as="geometry" />
        </mxCell>
        <mxCell id="q7a3Z3C_yqWMrhTd1zzZ-31" value="Print result" style="rounded=0;whiteSpace=wrap;html=1;" vertex="1" parent="1">
          <mxGeometry x="220" y="980" width="160" height="60" as="geometry" />
        </mxCell>
        <mxCell id="q7a3Z3C_yqWMrhTd1zzZ-32" value="END" style="ellipse;whiteSpace=wrap;html=1;" vertex="1" parent="1">
          <mxGeometry x="275" y="1080" width="50" height="50" as="geometry" />
        </mxCell>
        <mxCell id="q7a3Z3C_yqWMrhTd1zzZ-40" value="&lt;h1 style=&quot;margin-top: 0px;&quot;&gt;Pseudo Code&lt;/h1&gt;&lt;div&gt;Start&lt;/div&gt;&lt;div&gt;&lt;span style=&quot;white-space: pre;&quot;&gt;&#x9;&lt;/span&gt;SET name : Sefa&lt;br&gt;&lt;/div&gt;&lt;div&gt;&lt;span style=&quot;white-space: pre;&quot;&gt;&#x9;&lt;/span&gt;SET country : Turkey&lt;br&gt;&lt;/div&gt;&lt;div&gt;&lt;span style=&quot;white-space: pre;&quot;&gt;&#x9;&lt;/span&gt;SET age : 33&lt;br&gt;&lt;/div&gt;&lt;div&gt;&lt;span style=&quot;white-space: pre;&quot;&gt;&#x9;&lt;/span&gt;SET result : NULL&lt;br&gt;&lt;/div&gt;&lt;div&gt;&lt;br&gt;&lt;/div&gt;&lt;div&gt;&lt;span style=&quot;white-space: pre;&quot;&gt;&#x9;&lt;/span&gt;&lt;span style=&quot;background-color: rgb(236, 236, 236); color: light-dark(rgb(0, 0, 0), rgb(255, 255, 255)); text-align: center; float: none; display: inline !important;&quot;&gt;&lt;b&gt;&lt;font style=&quot;color: rgb(51, 153, 255);&quot;&gt;result&lt;/font&gt;&lt;/b&gt;&lt;/span&gt;&lt;span style=&quot;background-color: rgb(236, 236, 236); color: rgb(0, 0, 0); text-align: center; float: none; display: inline !important;&quot;&gt;&amp;nbsp;= Hello my name is&amp;nbsp;&lt;/span&gt;&lt;span style=&quot;background-color: rgb(236, 236, 236); color: light-dark(rgb(0, 0, 0), rgb(255, 255, 255)); text-align: center; float: none; display: inline !important;&quot;&gt;&lt;b&gt;&lt;font style=&quot;color: rgb(51, 153, 255);&quot;&gt;&quot;name&quot;&lt;/font&gt;&lt;/b&gt;&lt;/span&gt;&lt;span style=&quot;background-color: rgb(236, 236, 236); color: rgb(0, 0, 0); text-align: center; float: none; display: inline !important;&quot;&gt;&amp;nbsp;and i am&amp;nbsp;&lt;/span&gt;&lt;span style=&quot;background-color: rgb(236, 236, 236); color: light-dark(rgb(0, 0, 0), rgb(255, 255, 255)); text-align: center; float: none; display: inline !important;&quot;&gt;&lt;b&gt;&lt;font style=&quot;color: rgb(51, 153, 255);&quot;&gt;&quot;age&quot;&lt;/font&gt;&lt;/b&gt;&lt;/span&gt;&lt;span style=&quot;background-color: rgb(236, 236, 236); color: rgb(0, 0, 0); text-align: center; float: none; display: inline !important;&quot;&gt;&amp;nbsp;years old and i come from&amp;nbsp;&lt;/span&gt;&lt;span style=&quot;background-color: rgb(236, 236, 236); color: light-dark(rgb(0, 0, 0), rgb(255, 255, 255)); text-align: center; float: none; display: inline !important;&quot;&gt;&lt;b&gt;&lt;font style=&quot;color: rgb(51, 153, 255);&quot;&gt;&quot;country&quot;&lt;/font&gt;&lt;/b&gt;&lt;/span&gt;&lt;span style=&quot;background-color: rgb(236, 236, 236); color: rgb(0, 0, 0); text-align: center; float: none; display: inline !important;&quot;&gt;&amp;nbsp;&lt;/span&gt;&lt;br&gt;&lt;/div&gt;&lt;div&gt;&lt;br style=&quot;text-align: center;&quot;&gt;&lt;/div&gt;&lt;div&gt;PRINT result&lt;/div&gt;&lt;div&gt;&lt;br&gt;&lt;/div&gt;&lt;div&gt;END&lt;/div&gt;&lt;div&gt;&lt;br&gt;&lt;/div&gt;&lt;div&gt;&lt;br&gt;&lt;/div&gt;" style="text;html=1;whiteSpace=wrap;overflow=hidden;rounded=0;" vertex="1" parent="1">
          <mxGeometry x="530" y="50" width="260" height="310" as="geometry" />
        </mxCell>
      </root>
    </mxGraphModel>
  </diagram>
</mxfile>
